# xmcd
#
# Track frame offsets:
#	150
#	22550
#	41297
#	57032
#	86424
#	100451
#	118031
#	134827
#	174239
#	198010
#	217622
#	233900
#	248501
#	292968
#
# Disc length: 4417 seconds
#
# Revision: 1
# Processed by: cddbd v1.5.2PL0 Copyright (c) Steve Scherf et al.
# Submitted via: EZCDAudioConverter 1.3.4.1
#
DISCID=a8113f0e
DTITLE=John Martyn - One World (1st Disc)
DYEAR=1977
DGENRE=
TTITLE0=Dealer
TTITLE1=One World
TTITLE2=Smiling Stranger
TTITLE3=Big Muff
TTITLE4=Couldn't Love You More
TTITLE5=Certain Surprise
TTITLE6=Dancing
TTITLE7=Small Hours
TTITLE8=Dealer [Alternate Take]
TTITLE9=One World [Take 2]
TTITLE10=Smiling Stranger [Take 2]
TTITLE11=Couldn't Love You More [Alternate Take]
TTITLE12=Small Hours [Alternate Take]
TTITLE13=Black Man At Your Shoulder [Alternate Take]
EXTD=
EXTT0=
EXTT1=
EXTT2=
EXTT3=
EXTT4=
EXTT5=
EXTT6=
EXTT7=
EXTT8=
EXTT9=
EXTT10=
EXTT11=
EXTT12=
EXTT13=
PLAYORDER=
